<?xml version="1.0" standalone="no"?>
<!DOCTYPE svg PUBLIC "-//W3C//DTD SVG 20010904//EN"
 "http://www.w3.org/TR/2001/REC-SVG-20010904/DTD/svg10.dtd">
<svg version="1.0" xmlns="http://www.w3.org/2000/svg"
 width="1920.000000pt" height="1920.000000pt" viewBox="0 0 1920.000000 1920.000000"
 preserveAspectRatio="xMidYMid meet">
<metadata>
Created by potrace 1.14, written by Peter Selinger 2001-2017
</metadata>
<g transform="translate(0.000000,1920.000000) scale(0.100000,-0.100000)"
fill="#000000" stroke="none">
<path d="M13398 14615 c-2 -2 -47 -6 -101 -9 -113 -8 -142 -11 -292 -37 -398
-66 -757 -195 -1109 -398 -49 -28 -90 -51 -92 -51 -2 0 -117 -75 -154 -100
-479 -330 -969 -833 -1363 -1400 -85 -122 -281 -421 -317 -485 -10 -16 -52
-88 -95 -160 -99 -167 -229 -404 -340 -622 l-88 -172 -140 252 c-77 139 -148
264 -158 279 -11 14 -19 29 -19 32 0 13 -211 352 -332 533 -37 57 -68 105 -68
108 0 2 -7 13 -15 22 -7 10 -53 74 -101 142 -48 69 -91 129 -95 135 -12 14
-59 77 -84 112 -26 36 -146 185 -162 202 -7 7 -13 16 -13 20 0 4 -17 25 -38
47 -20 23 -50 56 -66 75 -156 187 -399 430 -591 591 -504 422 -1044 678 -1635
775 -19 4 -42 8 -50 9 -8 2 -40 6 -70 10 -30 3 -69 8 -87 10 -170 23 -560 23
-758 0 -139 -16 -172 -20 -255 -35 -36 -6 -78 -13 -95 -16 -152 -25 -452 -118
-643 -199 -480 -202 -937 -548 -1293 -977 -34 -40 -69 -82 -78 -94 -87 -103
-269 -372 -370 -549 -51 -88 -196 -378 -241 -480 -72 -163 -165 -428 -219
-620 -17 -60 -35 -123 -41 -140 -10 -30 -68 -279 -76 -325 -2 -14 -7 -36 -10
-50 -3 -14 -8 -35 -10 -48 -12 -67 -24 -141 -29 -172 -3 -19 -7 -46 -10 -60
-13 -74 -40 -298 -50 -415 -3 -38 -8 -81 -10 -95 -4 -24 -15 -202 -20 -340 -4
-91 -4 -645 -1 -700 14 -205 18 -251 22 -295 3 -27 7 -72 9 -100 5 -52 6 -58
30 -230 19 -130 18 -125 40 -240 9 -49 19 -101 21 -115 3 -14 12 -54 20 -90 9
-36 17 -73 19 -82 14 -67 75 -278 117 -408 122 -376 269 -698 476 -1045 88
-148 280 -421 371 -531 14 -17 44 -52 66 -79 80 -98 132 -153 295 -315 182
-181 178 -178 341 -310 105 -85 327 -241 409 -288 19 -11 69 -39 110 -62 195
-112 518 -247 730 -305 3 -1 12 -4 20 -8 65 -26 444 -98 590 -112 305 -30 695
-26 900 10 14 2 45 7 70 10 25 4 68 11 95 16 28 6 61 13 75 15 334 65 763 242
1091 450 104 66 270 182 324 226 11 9 54 45 95 78 567 467 1126 1178 1642
2090 98 171 100 175 168 305 35 66 64 121 65 123 2 3 24 -33 73 -118 76 -135
94 -165 112 -190 11 -15 20 -31 20 -34 0 -3 22 -40 48 -83 27 -43 75 -121 107
-173 190 -308 507 -768 653 -949 15 -18 31 -41 36 -50 5 -9 12 -18 16 -21 3
-3 35 -41 70 -85 72 -90 212 -255 280 -330 60 -66 334 -341 385 -385 221 -193
401 -320 641 -454 98 -54 176 -92 379 -181 129 -57 480 -158 625 -181 19 -3
60 -9 90 -14 30 -5 78 -12 105 -16 28 -3 58 -8 67 -10 122 -22 708 -22 837 1
19 3 84 12 156 21 28 3 59 8 70 10 85 16 142 28 215 46 47 11 90 21 95 22 112
26 368 118 504 182 51 24 95 44 96 44 8 0 245 135 295 168 339 220 643 502
908 841 129 166 258 357 364 540 75 130 268 523 268 546 0 3 8 25 19 48 10 23
33 83 51 132 18 50 36 99 40 110 23 55 112 347 125 411 3 12 19 80 36 150 36
153 44 189 74 359 12 69 18 111 40 265 2 14 6 43 9 65 3 22 8 69 11 105 3 36
8 81 10 100 23 192 30 373 30 775 -1 351 -6 536 -20 640 -2 17 -7 57 -10 90
-27 262 -89 608 -159 880 -42 165 -170 542 -226 670 -10 22 -24 56 -31 75 -30
77 -230 462 -297 572 -268 441 -582 823 -953 1160 -46 42 -113 99 -149 128
-36 28 -78 62 -95 76 -63 51 -352 241 -460 301 -199 111 -564 261 -725 298 -8
2 -49 13 -90 24 -66 17 -127 30 -210 46 -14 3 -36 7 -50 10 -29 5 -64 11 -140
21 -58 7 -60 7 -180 19 -68 7 -486 15 -492 10z m967 -1929 c17 -2 59 -8 95
-11 36 -4 68 -9 71 -11 4 -2 24 -6 45 -10 22 -3 57 -10 79 -16 22 -5 48 -12
59 -14 36 -7 201 -55 221 -64 11 -5 56 -23 100 -41 128 -50 291 -137 425 -227
69 -47 127 -88 130 -91 3 -3 30 -26 60 -51 48 -39 125 -108 194 -176 21 -21
104 -110 163 -177 172 -192 391 -561 488 -822 20 -55 41 -109 45 -120 32 -74
106 -366 126 -500 3 -16 7 -40 9 -52 3 -13 8 -49 11 -80 3 -32 7 -64 9 -70 27
-84 27 -703 0 -918 -3 -22 -7 -60 -10 -85 -12 -89 -65 -347 -90 -430 -14 -47
-28 -95 -30 -107 -13 -60 -105 -285 -172 -420 -188 -383 -461 -721 -792 -983
-50 -39 -50 -39 -188 -132 -138 -93 -453 -251 -543 -273 -8 -2 -48 -15 -88
-29 -41 -14 -83 -28 -95 -30 -12 -3 -38 -10 -57 -16 -19 -5 -46 -12 -60 -15
-14 -3 -36 -8 -50 -11 -45 -11 -234 -44 -276 -49 -51 -5 -165 -16 -224 -20
-55 -5 -399 -5 -455 -1 -157 12 -226 20 -345 37 -74 11 -151 24 -170 29 -19 5
-48 11 -65 14 -16 3 -88 22 -160 41 -844 232 -1523 758 -2149 1666 -36 53 -66
100 -66 103 0 4 -5 12 -10 19 -13 15 -110 166 -110 170 0 2 -25 46 -56 96
l-56 93 48 101 c201 426 642 1270 725 1389 11 14 19 29 19 32 0 9 208 348 296
482 79 122 222 328 258 375 12 15 30 39 41 55 57 81 248 311 329 399 158 169
348 346 451 420 16 11 33 25 39 31 30 29 284 189 378 238 167 87 416 182 552
211 139 29 244 46 306 51 41 4 77 8 79 10 5 5 430 -4 466 -10z m-8605 -180
c19 -2 60 -8 90 -11 176 -20 283 -38 430 -74 25 -7 52 -13 60 -15 118 -29 318
-97 449 -153 349 -149 671 -355 975 -623 117 -103 390 -386 449 -465 4 -5 19
-23 33 -40 131 -153 363 -490 498 -723 l76 -131 -41 -88 c-577 -1221 -1115
-2113 -1629 -2697 -101 -115 -344 -350 -430 -416 -25 -19 -47 -38 -50 -41 -22
-26 -261 -187 -340 -230 -25 -13 -47 -26 -50 -29 -3 -3 -45 -25 -94 -48 -276
-134 -556 -213 -846 -238 -145 -13 -454 -7 -565 11 -58 10 -90 15 -130 21 -88
13 -311 73 -390 104 -11 5 -51 20 -90 35 -90 34 -298 142 -389 202 -67 44
-175 122 -186 133 -3 3 -32 28 -65 55 -95 78 -282 271 -374 385 -261 325 -457
717 -557 1114 -14 56 -29 117 -34 136 -13 49 -48 264 -55 330 -2 30 -8 89 -12
130 -16 155 -8 699 12 799 2 10 6 42 10 72 3 30 8 65 10 79 3 14 7 41 10 60 3
19 17 85 31 145 14 61 27 118 29 127 13 58 94 293 126 365 10 24 19 45 19 49
0 12 119 243 165 319 215 357 538 693 880 917 71 47 84 54 215 126 183 100
469 202 705 253 33 7 62 13 65 14 5 1 47 8 140 22 151 23 283 30 535 27 154
-1 296 -5 315 -8z"/>
</g>
</svg>
